<svg width="48" height="48" viewBox="0 0 48 48" fill="none" xmlns="http://www.w3.org/2000/svg">
<rect width="48" height="48" rx="24" fill="#B3B8DB"/>
<path d="M29.6249 11.8125C29.1068 11.8125 28.6874 12.2318 28.6874 12.75C28.6874 13.2682 29.1068 13.6875 29.6249 13.6875C31.1758 13.6875 32.4374 14.9491 32.4374 16.5C32.4374 17.0182 32.8568 17.4375 33.3749 17.4375C33.8931 17.4375 34.3124 17.0182 34.3124 16.5C34.3124 14.9491 35.5741 13.6875 37.1249 13.6875C37.6431 13.6875 38.0624 13.2682 38.0624 12.75C38.0624 12.2318 37.6431 11.8125 37.1249 11.8125C35.5741 11.8125 34.3124 10.4884 34.3124 8.9375C34.3124 8.41931 33.8931 8 33.3749 8C32.8568 8 32.4374 8.41931 32.4374 8.9375C32.4374 10.4884 31.1758 11.8125 29.6249 11.8125Z" fill="white"/>
<path d="M19.3125 20.2505C19.3125 20.7687 19.7318 21.188 20.25 21.188C22.8346 21.188 24.9375 23.2909 24.9375 25.8755C24.9375 26.3937 25.3568 26.813 25.875 26.813C26.3932 26.813 26.8125 26.3937 26.8125 25.8755C26.8125 23.2909 28.9154 21.188 31.5 21.188C32.0182 21.188 32.4375 20.7687 32.4375 20.2505C32.4375 19.7323 32.0182 19.313 31.5 19.313C28.9154 19.313 26.8125 17.2101 26.8125 14.6255C26.8125 14.1073 26.3932 13.688 25.875 13.688C25.3568 13.688 24.9375 14.1073 24.9375 14.6255C24.9375 17.2101 22.8346 19.313 20.25 19.313C19.7318 19.313 19.3125 19.7323 19.3125 20.2505Z" fill="white"/>
<path d="M24 40C31.9211 40 38.9194 34.0177 39.9915 26.1688C40.05 25.7349 39.802 25.3192 39.3937 25.1645C38.9835 25.0098 38.5221 25.1581 38.2813 25.5234C36.1856 28.6783 32.464 30.5625 28.6875 30.5625C22.4839 30.5625 17.4375 25.5161 17.4375 19.3125C17.4375 15.5359 19.3216 11.8133 22.4765 9.71766C22.8409 9.47597 22.9901 9.01453 22.8354 8.60528C22.6807 8.19697 22.2632 7.95341 21.8311 8.00747C13.9823 9.07953 8 16.0788 8 24C8 32.7881 15.2119 40 24 40Z" fill="white"/>
</svg>
