<svg width="29" height="37" viewBox="0 0 29 37" fill="none" xmlns="http://www.w3.org/2000/svg">
<path d="M3.81213 36.7979H24.9059C26.6506 36.7979 28.0699 35.3785 28.0699 33.6338V11.3447H20.6871C18.9424 11.3447 17.5231 9.9254 17.5231 8.18066V0.797852H3.81213C2.0674 0.797852 0.648071 2.21718 0.648071 3.96191V33.6338C0.648071 35.3785 2.0674 36.7979 3.81213 36.7979ZM8.03088 15.6338H20.6871C21.2701 15.6338 21.7418 16.1055 21.7418 16.6885C21.7418 17.2714 21.2701 17.7432 20.6871 17.7432H8.03088C7.44792 17.7432 6.9762 17.2714 6.9762 16.6885C6.9762 16.1055 7.44792 15.6338 8.03088 15.6338ZM8.03088 19.8525H20.6871C21.2701 19.8525 21.7418 20.3243 21.7418 20.9072C21.7418 21.4902 21.2701 21.9619 20.6871 21.9619H8.03088C7.44792 21.9619 6.9762 21.4902 6.9762 20.9072C6.9762 20.3243 7.44792 19.8525 8.03088 19.8525ZM8.03088 24.0713H20.6871C21.2701 24.0713 21.7418 24.543 21.7418 25.126C21.7418 25.7089 21.2701 26.1807 20.6871 26.1807H8.03088C7.44792 26.1807 6.9762 25.7089 6.9762 25.126C6.9762 24.543 7.44792 24.0713 8.03088 24.0713ZM8.03088 28.29H16.4684C17.0513 28.29 17.5231 28.7618 17.5231 29.3447C17.5231 29.9277 17.0513 30.3994 16.4684 30.3994H8.03088C7.44792 30.3994 6.9762 29.9277 6.9762 29.3447C6.9762 28.7618 7.44792 28.29 8.03088 28.29Z" fill="#FDB022"/>
<path d="M20.6875 9.2417H27.4524L19.6328 1.42218V8.18702C19.6328 8.76892 20.1056 9.2417 20.6875 9.2417Z" fill="#FDB022"/>
</svg>
