<svg width="24" height="24" viewBox="0 0 24 24" fill="none" xmlns="http://www.w3.org/2000/svg">
<path d="M19.4211 9.9893L17.4325 8.00077C17.1579 7.72612 16.7129 7.72612 16.4383 8.00077L14.0625 10.3766V0.703125C14.0625 0.314484 13.748 0 13.3593 0H10.5468C10.1582 0 9.84372 0.314484 9.84372 0.703125V10.3766L7.46795 8.00077C7.19331 7.72612 6.74833 7.72612 6.47369 8.00077L4.48516 9.9893C4.21051 10.2639 4.21051 10.7089 4.48516 10.9836L11.456 17.9544C11.7306 18.2291 12.1756 18.2291 12.4502 17.9544L19.4211 10.9836C19.6957 10.7089 19.6957 10.2639 19.4211 9.9893Z" fill="#444CE7"/>
<path d="M23.2969 15.5625H20.4844C20.0957 15.5625 19.7812 15.877 19.7812 16.2656V19.7812H4.21875V16.2656C4.21875 15.877 3.90427 15.5625 3.51562 15.5625H0.703125C0.314484 15.5625 0 15.877 0 16.2656V21.8906C0 23.0538 0.946219 24 2.10938 24H21.8906C23.0538 24 24 23.0538 24 21.8906V16.2656C24 15.877 23.6855 15.5625 23.2969 15.5625Z" fill="#444CE7"/>
</svg>
