<svg width="20" height="25" viewBox="0 0 20 25" fill="none" xmlns="http://www.w3.org/2000/svg">
<path d="M19.9743 6.57775C19.9621 5.93513 19.9504 5.32806 19.9504 4.74076C19.9504 4.28066 19.5775 3.90764 19.1173 3.90764C15.5543 3.90764 12.8416 2.88368 10.5804 0.685118C10.2569 0.37053 9.74212 0.370641 9.41876 0.685118C7.15777 2.88368 4.44546 3.90764 0.882686 3.90764C0.42258 3.90764 0.0495626 4.28066 0.0495626 4.74076C0.0495626 5.32817 0.0380099 5.93546 0.0256797 6.57819C-0.0885138 12.5585 -0.244918 20.7487 9.72668 24.2051C9.81511 24.2357 9.9073 24.2511 9.9995 24.2511C10.0917 24.2511 10.184 24.2357 10.2723 24.2051C20.2447 20.7486 20.0885 12.5581 19.9743 6.57775ZM9.99962 22.5338C1.44766 19.4272 1.57696 12.6217 1.6917 6.60996C1.69859 6.24916 1.70526 5.89947 1.70992 5.55667C5.04686 5.41582 7.7153 4.40463 9.99962 2.41468C12.2842 4.40463 14.953 5.41593 18.2902 5.55667C18.2949 5.89936 18.3015 6.24883 18.3084 6.60941C18.4231 12.6213 18.5522 19.4271 9.99962 22.5338Z" fill="#079455"/>
<path d="M12.8686 9.45686L8.84747 13.4777L7.13157 11.7618C6.8062 11.4366 6.27867 11.4366 5.95342 11.7618C5.62806 12.0873 5.62806 12.6147 5.95342 12.9401L8.25839 15.2451C8.42102 15.4077 8.6343 15.489 8.84747 15.489C9.06064 15.489 9.27392 15.4077 9.43654 15.2451L14.0466 10.6351C14.3721 10.3098 14.3721 9.78222 14.0467 9.45697C13.7215 9.13161 13.1939 9.13149 12.8686 9.45686Z" fill="#079455"/>
</svg>
